<?xml version="1.0" standalone="no"?>
<!DOCTYPE svg PUBLIC "-//W3C//DTD SVG 20010904//EN"
 "http://www.w3.org/TR/2001/REC-SVG-20010904/DTD/svg10.dtd">
<svg version="1.0" xmlns="http://www.w3.org/2000/svg"
 width="1000.000000pt" height="1000.000000pt" viewBox="0 0 1000.000000 1000.000000"
 preserveAspectRatio="xMidYMid meet">

<g transform="translate(0.000000,1000.000000) scale(0.100000,-0.100000)"
fill="#000000" stroke="none">
<path d="M3961 8175 c-863 -172 -980 -198 -1020 -222 -55 -34 -107 -100 -121
-153 -7 -28 -10 -419 -7 -1262 3 -1209 4 -1224 25 -1338 59 -310 171 -589 334
-833 86 -130 113 -157 159 -157 29 0 43 7 63 31 14 17 26 40 26 51 0 11 -40
81 -89 154 -203 303 -312 615 -341 972 -8 93 -10 488 -8 1239 l3 1103 27 26
c23 24 53 32 275 76 136 27 553 109 926 183 373 74 682 135 687 135 6 0 10
-155 10 -405 0 -337 2 -411 15 -434 16 -32 33 -41 75 -41 42 0 59 9 75 41 13
23 15 97 15 435 l0 407 38 -7 c20 -3 442 -87 937 -185 l899 -179 28 -31 29
-32 -4 -1197 c-3 -1057 -6 -1208 -20 -1291 -59 -335 -187 -635 -382 -896 -75
-100 -246 -278 -345 -358 -312 -252 -700 -408 -1102 -443 l-78 -7 0 302 0 301
223 0 c253 0 273 5 345 80 68 70 72 92 72 440 0 325 -3 348 -48 409 -22 29
-28 54 -39 151 -21 194 -75 312 -200 430 -80 76 -195 139 -295 161 l-58 12 0
184 0 185 -29 29 c-37 36 -79 38 -118 5 l-28 -24 -3 -191 -3 -190 -37 -11
c-20 -5 -42 -10 -48 -10 -24 0 -171 -81 -217 -119 -141 -118 -217 -271 -233
-471 -6 -74 -10 -89 -34 -115 -65 -70 -65 -69 -68 -423 -3 -323 -3 -323 21
-375 27 -59 73 -108 126 -134 31 -15 69 -18 264 -21 l227 -3 0 -300 0 -299
-24 0 c-59 0 -270 32 -366 56 -136 34 -249 74 -382 135 -117 55 -143 56 -178
12 -24 -31 -26 -71 -4 -102 10 -13 62 -45 118 -72 203 -96 453 -167 671 -189
276 -29 248 -29 520 0 397 43 825 228 1140 492 353 297 610 703 719 1137 64
252 60 158 63 1513 l4 1238 -22 50 c-26 60 -89 121 -150 143 -77 29 -1961 397
-2025 396 -34 0 -478 -84 -1033 -194z m1212 -2535 c158 -60 276 -213 294 -381
l6 -59 -462 0 -461 0 0 39 c0 141 115 313 257 385 101 51 257 58 366 16z m350
-634 c14 -13 29 -35 32 -48 3 -13 5 -148 3 -300 -3 -273 -3 -278 -26 -300
l-23 -23 -494 -3 c-556 -3 -545 -4 -564 66 -14 49 -14 515 0 564 18 69 6 67
555 68 l491 0 26 -24z"/>
<path d="M3846 7255 c-18 -16 -26 -34 -26 -57 0 -40 340 -821 372 -855 26 -28
86 -31 117 -5 24 20 368 798 377 854 5 31 2 40 -21 62 -37 35 -94 35 -125 3
-19 -20 -213 -444 -268 -584 -9 -24 -19 -43 -22 -43 -3 0 -63 138 -134 306
-90 212 -137 311 -154 325 -34 27 -83 24 -116 -6z"/>
<path d="M4804 7268 c-42 -20 -44 -40 -44 -482 l0 -423 23 -21 c30 -28 95 -30
128 -3 23 18 24 25 27 179 l3 159 107 5 c82 4 118 10 152 26 109 53 170 138
178 252 7 98 -17 160 -87 231 -79 79 -115 89 -310 88 -86 0 -166 -5 -177 -11z
m344 -188 c80 -49 66 -168 -24 -206 -19 -8 -67 -14 -109 -14 l-75 0 0 120 0
120 88 0 c69 0 94 -4 120 -20z"/>
<path d="M5465 7255 l-25 -24 0 -431 0 -431 25 -24 c32 -33 101 -35 133 -5 22
20 22 26 22 295 0 151 3 275 8 274 4 0 93 -116 197 -256 234 -315 250 -333
298 -333 24 0 46 9 66 26 l31 26 0 433 c0 434 0 434 -22 455 -32 30 -101 28
-133 -5 l-25 -24 0 -287 0 -288 -224 301 c-123 166 -233 306 -244 312 -35 19
-81 13 -107 -14z"/>
<path d="M226 2311 c-3 -4 -17 -6 -30 -4 -20 4 -26 0 -31 -20 -7 -26 0 -47 14
-47 5 0 6 11 3 25 -3 18 0 25 12 25 9 0 16 -7 16 -15 0 -22 17 -18 23 6 8 29
32 18 32 -14 -1 -30 12 -36 22 -11 14 37 -41 87 -61 55z"/>
<path d="M270 2195 l0 -25 -20 20 c-11 11 -33 20 -50 20 -23 0 -31 -5 -36 -24
-6 -25 1 -46 15 -46 4 0 7 10 7 23 -1 32 34 34 64 2 32 -34 40 -32 40 15 0 22
-4 40 -10 40 -5 0 -10 -11 -10 -25z"/>
<path d="M176 2104 c-19 -18 -20 -28 -6 -55 19 -35 70 -17 70 26 1 18 3 17 18
-7 17 -29 32 -36 32 -17 0 18 -57 69 -79 69 -11 0 -27 -7 -35 -16z m42 -26
c-2 -12 -9 -23 -15 -26 -19 -6 -29 28 -12 39 23 14 31 10 27 -13z"/>
<path d="M4257 2033 c-4 -3 -7 -13 -7 -21 0 -16 217 -519 233 -540 6 -7 19
-12 30 -10 14 2 43 59 124 243 134 308 135 311 118 325 -32 27 -47 4 -141
-220 -53 -124 -99 -229 -103 -233 -5 -5 -32 48 -62 117 -29 68 -57 122 -62
119 -6 -4 -7 -1 -2 6 7 12 -56 179 -78 209 -10 13 -39 16 -50 5z"/>
<path d="M160 1992 c0 -5 7 -17 15 -28 13 -17 14 -17 15 -1 0 14 9 17 50 17
28 0 50 5 50 10 0 6 -28 10 -65 10 -36 0 -65 -4 -65 -8z"/>
<path d="M188 1933 c-19 -5 -34 -45 -23 -62 11 -18 22 -12 21 12 -1 32 34 34
64 2 32 -34 40 -32 40 15 0 22 -4 40 -10 40 -5 0 -10 -12 -10 -27 -1 -24 -2
-26 -13 -12 -17 22 -49 36 -69 32z"/>
<path d="M4947 1856 c-26 -7 -62 -26 -78 -42 -61 -57 -63 -70 -67 -298 -3
-190 -2 -211 13 -223 13 -8 23 -9 36 -2 17 9 19 23 19 119 0 109 5 125 31 94
62 -75 220 -52 274 40 99 170 -42 362 -228 312z m131 -73 c60 -37 81 -137 42
-200 -54 -88 -197 -81 -236 12 -57 137 74 264 194 188z"/>
<path d="M5483 1861 c-18 -5 -43 -16 -57 -24 -22 -15 -24 -15 -29 4 -4 16 -12
20 -34 17 l-28 -3 0 -195 0 -195 24 -3 c13 -2 28 2 32 10 5 7 9 71 9 141 l0
129 30 28 c36 34 79 43 127 27 65 -22 77 -50 83 -200 4 -117 7 -132 23 -135
39 -8 47 15 47 127 -1 120 -10 173 -38 210 -38 52 -120 78 -189 62z"/>
<path d="M177 1822 c-22 -24 -21 -35 1 -55 36 -33 112 -13 112 28 0 20 -40 45
-71 45 -14 0 -33 -8 -42 -18z m77 -8 c24 -9 19 -33 -8 -40 -31 -7 -66 3 -66
21 0 21 41 32 74 19z"/>
<path d="M160 1712 c0 -5 7 -17 15 -28 13 -17 14 -17 15 -1 0 14 9 17 50 17
28 0 50 5 50 10 0 6 -28 10 -65 10 -36 0 -65 -4 -65 -8z"/>
<path d="M222 1648 c-5 -7 -12 -22 -14 -33 -4 -18 -6 -17 -18 8 -14 30 -33 38
-23 10 11 -31 46 -63 69 -63 23 0 54 24 54 41 0 39 -46 64 -68 37z m43 -34 c0
-10 -8 -20 -17 -22 -18 -3 -26 27 -11 42 12 11 28 0 28 -20z"/>
<path d="M270 1523 l0 -27 -20 22 c-29 31 -78 30 -86 -2 -6 -25 1 -46 15 -46
4 0 7 10 7 23 -1 32 34 34 64 2 32 -34 40 -32 40 15 0 22 -4 40 -10 40 -5 0
-10 -12 -10 -27z"/>
<path d="M196 1451 c-4 -6 -12 -9 -17 -6 -5 4 -9 2 -9 -4 0 -5 6 -12 13 -15 9
-5 9 -7 0 -12 -10 -4 -9 -9 2 -20 8 -9 20 -12 26 -8 6 3 14 1 18 -5 5 -8 15
-9 31 -3 19 7 21 10 7 15 -23 9 -22 28 1 20 12 -4 11 0 -7 17 -17 17 -25 20
-31 10 -6 -9 -10 -8 -17 5 -7 12 -12 14 -17 6z m39 -41 c-3 -5 -10 -10 -16
-10 -5 0 -9 5 -9 10 0 6 7 10 16 10 8 0 12 -4 9 -10z"/>
<path d="M140 1280 c0 -6 38 -10 95 -10 57 0 95 4 95 10 0 6 -38 10 -95 10
-57 0 -95 -4 -95 -10z"/>
<path d="M261 1189 c-22 -18 -25 -19 -42 -3 -11 10 -22 14 -27 10 -4 -4 4 -16
17 -27 l23 -19 -46 0 c-34 0 -46 -4 -46 -15 0 -12 15 -15 75 -15 60 0 75 3 75
15 0 9 -9 15 -22 15 l-23 0 24 19 c13 10 22 23 20 29 -2 6 -14 3 -28 -9z"/>
<path d="M190 1081 c0 -27 27 -51 55 -51 24 0 45 25 45 54 0 25 -18 19 -22 -6
-2 -17 -10 -23 -28 -23 -18 0 -26 6 -28 23 -4 27 -22 30 -22 3z"/>
<path d="M206 994 c-19 -18 -20 -28 -6 -55 21 -39 90 -16 90 30 0 16 -30 41
-50 41 -10 0 -26 -7 -34 -16z m59 -29 c0 -22 -31 -33 -47 -17 -17 17 -1 44 24
40 15 -2 23 -10 23 -23z"/>
<path d="M190 900 c0 -5 -7 -10 -15 -10 -8 0 -15 -4 -15 -10 0 -5 6 -10 14
-10 8 0 17 -6 20 -12 5 -10 7 -10 12 0 3 6 21 12 40 12 34 0 56 22 39 38 -4 4
-10 1 -12 -5 -5 -15 -63 -18 -63 -3 0 6 -4 10 -10 10 -5 0 -10 -4 -10 -10z"/>
<path d="M212 810 c-19 -34 -35 -34 -40 -2 -5 30 -22 28 -22 -2 0 -50 54 -61
77 -16 17 34 38 32 38 -3 -1 -32 18 -31 23 2 8 53 -49 69 -76 21z"/>
<path d="M200 675 c-22 -26 3 -65 40 -65 35 0 58 36 45 67 -7 16 -9 15 -13 -7
-6 -40 -22 -48 -22 -12 0 25 -4 32 -19 32 -10 0 -24 -7 -31 -15z m30 -26 c0
-11 -4 -17 -10 -14 -5 3 -10 13 -10 21 0 8 5 14 10 14 6 0 10 -9 10 -21z"/>
<path d="M197 561 c-8 -22 -18 -31 -34 -31 -14 0 -23 -6 -23 -15 0 -23 138
-22 147 2 10 26 -19 68 -50 71 -24 3 -30 -2 -40 -27z m57 3 c28 -11 18 -34
-14 -34 -18 0 -30 5 -30 13 0 25 15 32 44 21z"/>
<path d="M206 464 c-19 -18 -20 -28 -6 -55 21 -39 90 -16 90 30 0 16 -30 41
-50 41 -10 0 -26 -7 -34 -16z m59 -29 c0 -22 -31 -33 -47 -17 -17 17 -1 44 24
40 15 -2 23 -10 23 -23z"/>
<path d="M140 350 c0 -5 11 -10 25 -10 15 0 25 -6 25 -14 0 -45 73 -62 92 -22
20 45 6 56 -72 56 -40 0 -70 -4 -70 -10z m128 -27 c-2 -12 -12 -18 -28 -18
-16 0 -26 6 -28 18 -3 13 3 17 28 17 25 0 31 -4 28 -17z"/>
<path d="M220 246 c-36 -13 -66 -29 -68 -37 -1 -9 20 -21 68 -35 38 -12 70
-17 70 -12 0 6 -9 12 -20 15 -14 4 -20 14 -20 34 0 22 5 29 20 29 11 0 20 7
20 15 0 8 -1 15 -2 14 -2 0 -32 -11 -68 -23z m8 -51 c-7 -7 -48 7 -48 15 0 15
45 16 48 2 2 -8 2 -15 0 -17z"/>
</g>
</svg>
